HIERARCHY
ROOT Hips
{
  OFFSET 43.866 97.4164 -288.488
  CHANNELS 6 Xposition Yposition Zposition Zrotation Xrotation Yrotation
  JOINT ToSpine
  {
    OFFSET -2.69724 7.43032 -0.144315
    CHANNELS 3 Zrotation Xrotation Yrotation
    JOINT Spine
    {
      OFFSET -0.0310711 10.7595 1.96963
      CHANNELS 3 Zrotation Xrotation Yrotation
      JOINT Spine1
      {
        OFFSET 13.1342 3.43533 0.764692
        CHANNELS 3 Zrotation Xrotation Yrotation
        JOINT Neck
        {
          OFFSET 29.8703 7.82586 -0.130764
          CHANNELS 3 Zrotation Xrotation Yrotation
          JOINT Head
          {
            OFFSET 9.52751 0.295786 -0.907742
            CHANNELS 3 Zrotation Xrotation Yrotation
            End Site
            {
              OFFSET 16.4037 0.713936 2.7358
            }
          }
        }
        JOINT LeftShoulder
        {
          OFFSET 27.5574 4.95586 2.47156
          CHANNELS 3 Zrotation Xrotation Yrotation
          JOINT LeftArm
          {
            OFFSET 1.20734 -0.998971 20.1238
            CHANNELS 3 Zrotation Xrotation Yrotation
            JOINT LeftForeArm
            {
              OFFSET 26.8049 -0.0536703 -0.155908
              CHANNELS 3 Zrotation Xrotation Yrotation
              JOINT LeftHand
              {
                OFFSET 26.6817 0 0.320147
                CHANNELS 3 Zrotation Xrotation Yrotation
                End Site
                {
                  OFFSET 18.6119 0 0.382219
                }
              }
            }
          }
        }
        JOINT RightShoulder
        {
          OFFSET 27.5927 4.71444 -2.65209
          CHANNELS 3 Zrotation Xrotation Yrotation
          JOINT RightArm
          {
            OFFSET 2.83739 -1.17114 -18.7564
            CHANNELS 3 Zrotation Xrotation Yrotation
            JOINT RightForeArm
            {
              OFFSET 28.839 -0.0548439 1.22491
              CHANNELS 3 Zrotation Xrotation Yrotation
              JOINT RightHand
              {
                OFFSET 26.5114 0 -0.101894
                CHANNELS 3 Zrotation Xrotation Yrotation
                End Site
                {
                  OFFSET 18.2168 0 0
                }
              }
            }
          }
        }
      }
    }
  }
  JOINT LeftUpLeg
  {
    OFFSET -4.76168 -1.9167 -10.2353
    CHANNELS 3 Zrotation Xrotation Yrotation
    JOINT LeftLeg
    {
      OFFSET 2.55951 -42.0585 -8.02213
      CHANNELS 3 Zrotation Xrotation Yrotation
      JOINT LeftFoot
      {
        OFFSET 3.16357 -42.5282 -3.95426
        CHANNELS 3 Zrotation Xrotation Yrotation
        JOINT LeftToeBase
        {
          OFFSET 0.346054 -6.02161 12.8035
          CHANNELS 3 Zrotation Xrotation Yrotation
          End Site
          {
            OFFSET 0.134235 -1.35082 5.13018
          }
        }
      }
    }
  }
  JOINT RightUpLeg
  {
    OFFSET -4.94151 -1.41743 10.6446
    CHANNELS 3 Zrotation Xrotation Yrotation
    JOINT RightLeg
    {
      OFFSET -2.56294 -42.0364 -7.94377
      CHANNELS 3 Zrotation Xrotation Yrotation
      JOINT RightFoot
      {
        OFFSET -3.0952 -42.555 -4.02241
        CHANNELS 3 Zrotation Xrotation Yrotation
        JOINT RightToeBase
        {
          OFFSET -0.0828122 -6.13587 12.8035
          CHANNELS 3 Zrotation Xrotation Yrotation
          End Site
          {
            OFFSET -0.131328 -1.35082 5.13018
          }
        }
      }
    }
  }
}
MOTION
Frames:	13
Frame Time:	0.0333333
52.6694 94.4544 8.70729 66.8795 -47.4319 -15.9137 -70.1915 0 88.8779 75.796 67.4909 14.3879 10.288 17.5568 -0.345037 -146.065 0.228807 -172.929 -146.498 37.7827 -171.275 -0.348361 -16.0106 -34.6056 -89.571 40.6862 -74.3802 12.6402 13.374 -43.692 0.420957 0.00057542 0.35866 -1.89363 5.8986 46.5578 -73.8594 -36.9745 78.8057 7.5051 -12.8823 30.7288 0.58676 0.000331176 0.0646654 -53.4181 3.41383 88.003 -6.37515 58.3841 -11.922 -0.0898761 -6.87043 -0.624728 7.331 -15.8298 5.20144 -44.4668 -1.73658 92.6689 0.546485 33.8193 3.39707 -8.27327 -3.62464 1.24039 0.787994 -9.25642 3.93832 
52.7034 94.8 10.2542 67.3627 -44.2728 -15.4475 -70.1915 0 88.8779 77.1235 67.804 12.4823 9.89762 17.7251 0.204317 -146.942 -0.213023 -172.055 -147.486 37.4638 -170.803 -0.344503 -16.0295 -34.453 -88.8752 41.5818 -74.5192 12.8275 14.4123 -42.0274 0.420957 0.00057542 0.35866 -1.91 6.0732 45.9072 -74.3873 -36.1366 79.2941 7.60027 -12.3939 32.0222 0.58676 0.000331176 0.0646654 -50.6455 4.09539 90.528 -6.70286 60.7702 -8.84422 -1.15472 -3.08752 -0.213925 7.38444 -15.9737 6.1722 -45.2034 -2.64625 90.8239 -0.139873 33.9144 2.84825 -7.69705 -5.2969 1.20182 0.720412 -8.36059 3.12136 
52.9394 95.1235 11.579 67.6515 -41.3622 -14.7332 -70.1915 0 88.8779 79.3237 68.1742 11.0969 9.38877 18.117 -0.069778 -147.522 -0.475718 -171.306 -148.009 37.1952 -170.869 -0.392577 -16.1433 -34.8214 -87.258 41.9731 -74.7226 13.0264 15.1299 -41.1222 0.420957 0.00057542 0.35866 -1.87577 6.19593 44.7634 -76.1662 -35.589 78.6838 9.02291 -13.8096 33.7395 0.58676 0.000331176 0.0646654 -48.085 4.86215 92.7632 -6.62718 62.7414 -4.16746 -1.04816 -1.39097 -0.0762621 5.59038 -12.8424 6.9687 -46.0008 -4.20228 87.2297 -0.205062 33.6544 3.865 -9.23041 -5.26655 1.33049 1.03012 -10.2479 2.81098 
53.2798 95.4689 12.7488 67.2881 -38.4285 -14.3318 -70.1915 0 88.8779 80.1617 68.5745 11.1699 8.7836 18.558 -0.0920039 -148.087 -0.160729 -170.062 -149.454 37.7647 -169.447 -0.438433 -16.2266 -35.2678 -85.3599 42.7956 -75.1059 10.8955 13.2529 -39.6317 0.420957 0.00057542 0.35866 -1.83324 6.1844 44.1605 -78.3685 -34.1646 77.0395 9.70672 -13.6291 36.0695 0.58676 0.000331176 0.0646654 -45.5239 5.92965 95.1761 -6.26605 63.2187 -1.43796 -0.959144 -2.39625 -0.173837 5.19438 -12.3103 8.36143 -46.4299 -5.41722 84.3949 -0.046831 33.1268 3.16409 -9.37213 -5.6197 1.3411 0.987185 -10.4477 3.81372 
53.6889 95.6912 13.7749 67.4004 -35.3759 -13.5691 -70.1915 0 88.8779 81.7278 69.0319 10.0814 8.14334 19.0007 -0.0590637 -148.477 0.493092 -169.87 -148.395 38.4357 -169.414 -0.464549 -16.2815 -35.4838 -85.4923 43.6987 -73.9253 10.3187 13.2084 -38.1741 0.420957 0.00057542 0.35866 -1.80167 6.04873 44.3255 -78.9469 -32.0257 76.3225 10.6572 -14.193 37.5889 0.58676 0.000331176 0.0646654 -43.7803 7.19205 97.8042 -5.7675 62.1103 -1.11374 -1.25058 -4.8877 -0.365693 5.02441 -11.9648 7.97302 -47.0782 -6.36258 82.3266 0.193703 33.0412 2.4854 -8.72008 -6.30948 1.2896 1.05257 -10.2005 2.41576 
54.2355 95.8235 14.6339 67.2524 -32.1164 -12.8147 -70.1915 0 88.8779 82.2326 69.237 10.2209 7.80863 19.2978 -0.402373 -149.193 0.232272 -171.141 -147.006 37.9134 -171.623 -0.406329 -16.0969 -35.2691 -85.3178 44.537 -73.1539 10.0163 13.6296 -36.4819 0.420957 0.00057542 0.35866 -1.9267 6.46408 44.2633 -80.526 -30.6434 75.0382 10.186 -13.1465 38.3949 0.58676 0.000331176 0.0646654 -42.0967 8.31235 100.108 -5.50624 59.7092 -3.97882 -2.08096 -6.69829 -0.470444 5.53896 -13.3146 12.293 -47.8088 -7.11831 80.7814 0.437783 32.5787 1.40665 -8.84311 -6.87474 1.29934 1.26865 -10.3729 -0.201014 
54.8146 95.9251 15.2721 67.003 -28.5768 -11.7558 -70.1915 0 88.8779 82.5169 69.5711 10.4986 7.41774 19.5851 -0.21476 -150.009 0.71619 -170.972 -146.584 38.4146 -171.922 -0.339757 -15.8165 -35.324 -84.8372 45.1482 -73.2054 9.70068 14.2248 -34.4596 0.420957 0.00057542 0.35866 -2.0344 6.89628 43.8905 -81.6813 -29.5291 73.6418 9.93304 -12.3965 39.296 0.58676 0.000331176 0.0646654 -40.0329 9.28704 101.622 -4.86894 56.2635 -5.83722 -1.92345 -8.64676 -0.670091 5.3298 -12.92 11.7183 -48.6224 -7.59635 79.6188 0.775483 31.8208 -0.350673 -6.79705 -7.67383 1.17094 1.24998 -9.59208 -1.16781 
55.4162 96.0657 15.8014 67.1045 -24.5009 -10.454 -70.1915 0 88.8779 84.1126 69.7752 9.22354 6.43076 19.7495 -0.392576 -150.061 1.47753 -171.748 -145.55 39.0315 -172.824 -0.300309 -15.6512 -35.3544 -83.6795 45.6492 -73.5273 9.35369 14.8263 -32.405 0.420957 0.00057542 0.35866 -1.8015 6.18999 43.6407 -81.4743 -28.5129 74.021 10.386 -13.2195 38.7974 0.58676 0.000331176 0.0646654 -38.0729 9.74053 102.532 -4.45922 52.2651 -9.01216 -1.12997 -7.7737 -0.633939 6.81363 -15.5783 16.7575 -50.2313 -7.87883 78.9918 1.03679 30.2546 -2.61352 -6.57731 -7.69596 1.15753 1.52669 -10.643 -3.40925 
56.0786 95.9677 16.1531 66.7601 -20.1942 -9.01443 -70.1915 0 88.8779 83.6578 69.9096 9.44098 5.84391 19.6386 0.558058 -150.543 2.52739 -171.563 -145.161 40.147 -172.731 -0.405877 -16.0041 -35.6777 -83.6174 46.189 -72.9031 9.19258 15.6095 -30.655 0.420957 0.00057542 0.35866 -1.79401 6.31443 42.9462 -81.7582 -28.1306 73.5291 10.2195 -13.2314 38.3136 0.58676 0.000331176 0.0646654 -35.3513 10.6292 103.608 -3.63307 48.5451 -7.42866 -0.574231 -9.10242 -0.78086 5.84868 -13.9694 14.1783 -51.1594 -7.97298 78.5041 1.49861 29.4865 -4.44036 -6.11175 -8.41309 1.14608 1.88031 -11.5521 -7.75773 
56.9502 95.8348 16.3161 66.8563 -16.452 -7.98172 -70.1915 0 88.8779 84.2812 70.3626 8.47504 5.6691 20.0521 0.380366 -151.743 2.98803 -172.782 -145.351 40.5731 -174.1 -0.365534 -15.901 -35.4123 -83.8744 46.6173 -72.411 9.28468 16.6077 -29.5826 0.420957 0.00057542 0.35866 -1.77751 6.24267 43.0218 -82.0682 -27.5856 73.2285 9.78132 -12.7826 38.0165 0.58676 0.000331176 0.0646654 -33.414 10.8989 104.79 -3.00515 44.7404 -6.29244 0.494761 -8.30991 -0.77349 5.13964 -12.8978 14.3587 -52.8256 -8.49677 78.0602 1.89159 28.1542 -7.48842 -6.67215 -9.08386 1.19125 1.8888 -11.7727 -7.69355 
57.9453 95.6083 16.3564 66.5066 -12.8595 -6.77299 -70.1915 0 88.8779 83.7478 70.7383 8.53071 5.47234 20.2942 0.767251 -152.809 3.73792 -173.6 -145.751 41.4153 -174.659 -0.278449 -15.6039 -35.1573 -82.2766 47.1452 -73.3983 8.48986 16.8457 -28.2239 0.420957 0.00057542 0.35866 -1.85454 6.65693 42.339 -82.9437 -28.271 72.5557 10.2119 -13.4118 37.9215 0.58676 0.000331176 0.0646654 -31.0617 11.2029 105.484 -2.53594 40.8813 -5.6263 0.167883 -5.71334 -0.552345 6.10985 -14.2145 12.1758 -54.0274 -8.32169 78.0893 1.90175 27.1321 -11.2585 -5.51397 -10.4161 1.1729 1.93641 -12.1462 -8.16598 
59.1639 95.4011 16.193 66.3642 -9.92499 -5.75902 -70.1915 0 88.8779 84.1172 71.2621 7.91457 5.41726 20.8012 0.615778 -153.162 4.6108 -174.079 -145.214 42.2588 -175.085 -0.194947 -15.2753 -35.104 -82.5639 47.6977 -72.0609 8.89693 16.732 -28.8565 0.420957 0.00057542 0.35866 -1.86263 6.56514 42.8562 -82.8806 -27.7843 72.7438 10.2685 -13.5054 37.885 0.58676 0.000331176 0.0646654 -29.5051 11.4993 106.634 -2.34452 36.7989 -6.86655 0.282097 -3.03489 -0.356592 6.97466 -15.5789 12.0299 -55.793 -8.47135 77.7119 2.20218 25.6483 -14.1667 -4.74014 -11.2186 1.17271 1.89138 -11.1663 -8.26009 
60.4654 95.1988 15.8789 65.7999 -7.26786 -4.89659 -70.1915 0 88.8779 83.6726 71.792 7.96579 5.15997 21.3448 0.598001 -153.346 5.62879 -174.129 -145.614 43.4223 -174.717 -0.135655 -15.0466 -35.0355 -82.6299 48.3516 -70.8526 9.28736 17.1693 -29.1288 0.420957 0.00057542 0.35866 -1.81909 6.41751 42.8612 -82.6266 -27.8814 73.1279 11.0124 -14.3402 38.2241 0.58676 0.000331176 0.0646654 -27.7565 11.4212 107.01 -2.19427 33.0325 -7.45299 0.339571 -3.55395 -0.401781 5.63886 -13.2198 9.70197 -57.0906 -8.61757 77.5528 2.38587 24.2957 -17.8294 -4.18458 -11.7795 1.17879 1.69488 -10.9259 -5.51337 
